<svg width="16" height="15" viewBox="0 0 16 15" fill="none" xmlns="http://www.w3.org/2000/svg">
<path d="M15.5634 13.9417L11.8359 10.2141C12.8517 8.97176 13.3511 7.38649 13.2309 5.78623C13.1106 4.18596 12.3799 2.69312 11.1899 1.6165C9.99986 0.539881 8.44153 -0.0381557 6.83726 0.00195626C5.23298 0.0420682 3.7055 0.697259 2.57075 1.83201C1.436 2.96676 0.780807 4.49424 0.740695 6.09852C0.700583 7.7028 1.27862 9.26112 2.35524 10.4512C3.43186 11.6412 4.9247 12.3719 6.52497 12.4921C8.12523 12.6124 9.71049 12.1129 10.9529 11.0971L14.6804 14.8247C14.7982 14.9385 14.9559 15.0014 15.1197 15C15.2834 14.9986 15.44 14.9329 15.5558 14.8171C15.6716 14.7013 15.7373 14.5447 15.7387 14.3809C15.7401 14.2172 15.6772 14.0595 15.5634 13.9417ZM7.0036 11.2608C6.0155 11.2608 5.0496 10.9677 4.22803 10.4188C3.40646 9.86984 2.76612 9.08958 2.38799 8.1767C2.00986 7.26382 1.91093 6.25932 2.1037 5.29021C2.29646 4.3211 2.77228 3.43091 3.47097 2.73223C4.16965 2.03354 5.05984 1.55772 6.02895 1.36496C6.99805 1.17219 8.00256 1.27112 8.91544 1.64925C9.82832 2.02738 10.6086 2.66772 11.1575 3.48929C11.7065 4.31086 11.9995 5.27676 11.9995 6.26486C11.998 7.58939 11.4712 8.85926 10.5346 9.79585C9.59799 10.7324 8.32813 11.2593 7.0036 11.2608Z" fill="white"/>
</svg>
